<mxfile host="app.diagrams.net" modified="2023-04-27T10:02:48.421Z" agent="Mozilla/5.0 (Windows NT 10.0; Win64; x64) AppleWebKit/537.36 (KHTML, like Gecko) Chrome/110.0.0.0 YaBrowser/23.3.2.810 Yowser/2.5 Safari/537.36" etag="B8dW9Rt2C7EbiUmutnMX" version="21.2.3" type="device">
  <diagram name="Страница 1" id="f8433ClVweKhDPGDEoct">
    <mxGraphModel dx="1500" dy="779" grid="1" gridSize="10" guides="1" tooltips="1" connect="1" arrows="1" fold="1" page="1" pageScale="1" pageWidth="827" pageHeight="1169" math="0" shadow="0">
      <root>
        <mxCell id="0" />
        <mxCell id="1" parent="0" />
        <mxCell id="xGTi4fB9Ev1CD0aGqM9J-1" value="Неавторизованный&lt;br&gt;пользователь" style="shape=umlActor;html=1;verticalLabelPosition=bottom;verticalAlign=top;align=center;" vertex="1" parent="1">
          <mxGeometry x="850" y="210" width="30" height="60" as="geometry" />
        </mxCell>
        <mxCell id="xGTi4fB9Ev1CD0aGqM9J-2" value="Клинер" style="shape=umlActor;html=1;verticalLabelPosition=bottom;verticalAlign=top;align=center;" vertex="1" parent="1">
          <mxGeometry x="210" y="430" width="30" height="60" as="geometry" />
        </mxCell>
        <mxCell id="xGTi4fB9Ev1CD0aGqM9J-3" value="Менеджер по&lt;br&gt;работе с клиентами" style="shape=umlActor;html=1;verticalLabelPosition=bottom;verticalAlign=top;align=center;" vertex="1" parent="1">
          <mxGeometry x="850" y="540" width="30" height="60" as="geometry" />
        </mxCell>
        <mxCell id="xGTi4fB9Ev1CD0aGqM9J-4" value="Администратор" style="shape=umlActor;html=1;verticalLabelPosition=bottom;verticalAlign=top;align=center;" vertex="1" parent="1">
          <mxGeometry x="850" y="370" width="30" height="60" as="geometry" />
        </mxCell>
        <mxCell id="xGTi4fB9Ev1CD0aGqM9J-6" value="CRM система JustClean" style="swimlane;whiteSpace=wrap;html=1;" vertex="1" parent="1">
          <mxGeometry x="280" y="90" width="530" height="740" as="geometry" />
        </mxCell>
        <mxCell id="xGTi4fB9Ev1CD0aGqM9J-9" value="Регистрация" style="ellipse;whiteSpace=wrap;html=1;" vertex="1" parent="xGTi4fB9Ev1CD0aGqM9J-6">
          <mxGeometry x="240" y="30" width="110" height="60" as="geometry" />
        </mxCell>
        <mxCell id="xGTi4fB9Ev1CD0aGqM9J-10" value="Авторизация" style="ellipse;whiteSpace=wrap;html=1;" vertex="1" parent="xGTi4fB9Ev1CD0aGqM9J-6">
          <mxGeometry x="124" y="30" width="110" height="60" as="geometry" />
        </mxCell>
        <mxCell id="xGTi4fB9Ev1CD0aGqM9J-11" value="Восстановление пароля" style="ellipse;whiteSpace=wrap;html=1;" vertex="1" parent="xGTi4fB9Ev1CD0aGqM9J-6">
          <mxGeometry x="10" y="30" width="110" height="60" as="geometry" />
        </mxCell>
        <mxCell id="xGTi4fB9Ev1CD0aGqM9J-19" value="Изменение данных продаж" style="ellipse;whiteSpace=wrap;html=1;" vertex="1" parent="xGTi4fB9Ev1CD0aGqM9J-6">
          <mxGeometry x="50" y="370" width="110" height="60" as="geometry" />
        </mxCell>
        <mxCell id="xGTi4fB9Ev1CD0aGqM9J-20" value="Изменение данных заявок" style="ellipse;whiteSpace=wrap;html=1;" vertex="1" parent="xGTi4fB9Ev1CD0aGqM9J-6">
          <mxGeometry x="50" y="120" width="110" height="60" as="geometry" />
        </mxCell>
        <mxCell id="xGTi4fB9Ev1CD0aGqM9J-25" value="Просмотр истории всех заявок" style="ellipse;whiteSpace=wrap;html=1;" vertex="1" parent="xGTi4fB9Ev1CD0aGqM9J-6">
          <mxGeometry x="50" y="190" width="110" height="60" as="geometry" />
        </mxCell>
        <mxCell id="xGTi4fB9Ev1CD0aGqM9J-28" value="Восстановление заявок" style="ellipse;whiteSpace=wrap;html=1;" vertex="1" parent="xGTi4fB9Ev1CD0aGqM9J-6">
          <mxGeometry x="50" y="300" width="110" height="60" as="geometry" />
        </mxCell>
        <mxCell id="xGTi4fB9Ev1CD0aGqM9J-29" value="Просмотр всех разделов системы" style="ellipse;whiteSpace=wrap;html=1;" vertex="1" parent="xGTi4fB9Ev1CD0aGqM9J-6">
          <mxGeometry x="50" y="440" width="110" height="60" as="geometry" />
        </mxCell>
        <mxCell id="xGTi4fB9Ev1CD0aGqM9J-37" value="Просмотр и изменение данных в профиле" style="ellipse;whiteSpace=wrap;html=1;" vertex="1" parent="xGTi4fB9Ev1CD0aGqM9J-6">
          <mxGeometry x="50" y="510" width="110" height="60" as="geometry" />
        </mxCell>
        <mxCell id="xGTi4fB9Ev1CD0aGqM9J-51" value="Экспорт документа прибыли убыли" style="ellipse;whiteSpace=wrap;html=1;" vertex="1" parent="xGTi4fB9Ev1CD0aGqM9J-6">
          <mxGeometry x="50" y="580" width="110" height="60" as="geometry" />
        </mxCell>
        <mxCell id="xGTi4fB9Ev1CD0aGqM9J-53" value="Изменение данных клиентов" style="ellipse;whiteSpace=wrap;html=1;" vertex="1" parent="xGTi4fB9Ev1CD0aGqM9J-6">
          <mxGeometry x="50" y="660" width="110" height="60" as="geometry" />
        </mxCell>
        <mxCell id="xGTi4fB9Ev1CD0aGqM9J-54" value="Изменение данных товаров" style="ellipse;whiteSpace=wrap;html=1;" vertex="1" parent="xGTi4fB9Ev1CD0aGqM9J-6">
          <mxGeometry x="170" y="660" width="110" height="60" as="geometry" />
        </mxCell>
        <mxCell id="xGTi4fB9Ev1CD0aGqM9J-55" value="Изменение данных услуг" style="ellipse;whiteSpace=wrap;html=1;" vertex="1" parent="xGTi4fB9Ev1CD0aGqM9J-6">
          <mxGeometry x="290" y="660" width="110" height="60" as="geometry" />
        </mxCell>
        <mxCell id="xGTi4fB9Ev1CD0aGqM9J-56" value="Изменение данных поставщиков" style="ellipse;whiteSpace=wrap;html=1;" vertex="1" parent="xGTi4fB9Ev1CD0aGqM9J-6">
          <mxGeometry x="410" y="660" width="110" height="60" as="geometry" />
        </mxCell>
        <mxCell id="xGTi4fB9Ev1CD0aGqM9J-12" value="Генерация случайного пароля" style="ellipse;whiteSpace=wrap;html=1;" vertex="1" parent="xGTi4fB9Ev1CD0aGqM9J-6">
          <mxGeometry x="410" y="30" width="110" height="60" as="geometry" />
        </mxCell>
        <mxCell id="xGTi4fB9Ev1CD0aGqM9J-61" value="Include" style="endArrow=none;dashed=1;html=1;rounded=0;entryX=0;entryY=0.5;entryDx=0;entryDy=0;exitX=1;exitY=0.5;exitDx=0;exitDy=0;startArrow=classic;startFill=1;" edge="1" parent="xGTi4fB9Ev1CD0aGqM9J-6" source="xGTi4fB9Ev1CD0aGqM9J-9" target="xGTi4fB9Ev1CD0aGqM9J-12">
          <mxGeometry width="50" height="50" relative="1" as="geometry">
            <mxPoint x="180" y="330" as="sourcePoint" />
            <mxPoint x="230" y="280" as="targetPoint" />
          </mxGeometry>
        </mxCell>
        <mxCell id="xGTi4fB9Ev1CD0aGqM9J-70" value="Изменение данных офисов" style="ellipse;whiteSpace=wrap;html=1;" vertex="1" parent="xGTi4fB9Ev1CD0aGqM9J-6">
          <mxGeometry x="260" y="140" width="110" height="60" as="geometry" />
        </mxCell>
        <mxCell id="xGTi4fB9Ev1CD0aGqM9J-71" value="Изменение данных администраторов" style="ellipse;whiteSpace=wrap;html=1;" vertex="1" parent="xGTi4fB9Ev1CD0aGqM9J-6">
          <mxGeometry x="380" y="140" width="110" height="60" as="geometry" />
        </mxCell>
        <mxCell id="xGTi4fB9Ev1CD0aGqM9J-78" value="Include" style="endArrow=none;dashed=1;html=1;rounded=0;entryX=0.5;entryY=0;entryDx=0;entryDy=0;exitX=0.5;exitY=1;exitDx=0;exitDy=0;startArrow=classic;startFill=1;" edge="1" parent="xGTi4fB9Ev1CD0aGqM9J-6" source="xGTi4fB9Ev1CD0aGqM9J-25" target="xGTi4fB9Ev1CD0aGqM9J-28">
          <mxGeometry width="50" height="50" relative="1" as="geometry">
            <mxPoint x="360" y="70" as="sourcePoint" />
            <mxPoint x="420" y="70" as="targetPoint" />
          </mxGeometry>
        </mxCell>
        <mxCell id="xGTi4fB9Ev1CD0aGqM9J-52" value="Изменение данных сотрудников" style="ellipse;whiteSpace=wrap;html=1;" vertex="1" parent="xGTi4fB9Ev1CD0aGqM9J-6">
          <mxGeometry x="180" y="300" width="110" height="60" as="geometry" />
        </mxCell>
        <mxCell id="xGTi4fB9Ev1CD0aGqM9J-15" value="" style="endArrow=none;html=1;rounded=0;exitX=0.5;exitY=0.5;exitDx=0;exitDy=0;exitPerimeter=0;entryX=1;entryY=1;entryDx=0;entryDy=0;endFill=0;" edge="1" parent="1" source="xGTi4fB9Ev1CD0aGqM9J-1" target="xGTi4fB9Ev1CD0aGqM9J-9">
          <mxGeometry width="50" height="50" relative="1" as="geometry">
            <mxPoint x="550" y="400" as="sourcePoint" />
            <mxPoint x="600" y="350" as="targetPoint" />
          </mxGeometry>
        </mxCell>
        <mxCell id="xGTi4fB9Ev1CD0aGqM9J-16" value="" style="endArrow=none;html=1;rounded=0;entryX=1;entryY=1;entryDx=0;entryDy=0;endFill=0;exitX=0.5;exitY=0.5;exitDx=0;exitDy=0;exitPerimeter=0;" edge="1" parent="1" source="xGTi4fB9Ev1CD0aGqM9J-1" target="xGTi4fB9Ev1CD0aGqM9J-10">
          <mxGeometry width="50" height="50" relative="1" as="geometry">
            <mxPoint x="840" y="220" as="sourcePoint" />
            <mxPoint x="650" y="160" as="targetPoint" />
          </mxGeometry>
        </mxCell>
        <mxCell id="xGTi4fB9Ev1CD0aGqM9J-17" value="" style="endArrow=none;html=1;rounded=0;exitX=0.5;exitY=0.5;exitDx=0;exitDy=0;exitPerimeter=0;entryX=0.5;entryY=1;entryDx=0;entryDy=0;endFill=0;" edge="1" parent="1" source="xGTi4fB9Ev1CD0aGqM9J-1" target="xGTi4fB9Ev1CD0aGqM9J-11">
          <mxGeometry width="50" height="50" relative="1" as="geometry">
            <mxPoint x="815" y="280" as="sourcePoint" />
            <mxPoint x="660" y="170" as="targetPoint" />
          </mxGeometry>
        </mxCell>
        <mxCell id="xGTi4fB9Ev1CD0aGqM9J-32" value="" style="endArrow=none;html=1;rounded=0;exitX=0.5;exitY=0.5;exitDx=0;exitDy=0;exitPerimeter=0;entryX=0;entryY=0.5;entryDx=0;entryDy=0;" edge="1" parent="1" source="xGTi4fB9Ev1CD0aGqM9J-2" target="xGTi4fB9Ev1CD0aGqM9J-20">
          <mxGeometry width="50" height="50" relative="1" as="geometry">
            <mxPoint x="530" y="430" as="sourcePoint" />
            <mxPoint x="580" y="380" as="targetPoint" />
          </mxGeometry>
        </mxCell>
        <mxCell id="xGTi4fB9Ev1CD0aGqM9J-33" value="" style="endArrow=none;html=1;rounded=0;exitX=0.5;exitY=0.5;exitDx=0;exitDy=0;exitPerimeter=0;entryX=0;entryY=0.5;entryDx=0;entryDy=0;" edge="1" parent="1" source="xGTi4fB9Ev1CD0aGqM9J-2" target="xGTi4fB9Ev1CD0aGqM9J-25">
          <mxGeometry width="50" height="50" relative="1" as="geometry">
            <mxPoint x="235" y="350" as="sourcePoint" />
            <mxPoint x="360" y="270" as="targetPoint" />
          </mxGeometry>
        </mxCell>
        <mxCell id="xGTi4fB9Ev1CD0aGqM9J-35" value="" style="endArrow=none;html=1;rounded=0;exitX=0.5;exitY=0.5;exitDx=0;exitDy=0;exitPerimeter=0;entryX=0;entryY=0.5;entryDx=0;entryDy=0;" edge="1" parent="1" source="xGTi4fB9Ev1CD0aGqM9J-2" target="xGTi4fB9Ev1CD0aGqM9J-19">
          <mxGeometry width="50" height="50" relative="1" as="geometry">
            <mxPoint x="255" y="370" as="sourcePoint" />
            <mxPoint x="380" y="290" as="targetPoint" />
          </mxGeometry>
        </mxCell>
        <mxCell id="xGTi4fB9Ev1CD0aGqM9J-36" value="" style="endArrow=none;html=1;rounded=0;exitX=0.5;exitY=0.5;exitDx=0;exitDy=0;exitPerimeter=0;entryX=0;entryY=0.5;entryDx=0;entryDy=0;" edge="1" parent="1" source="xGTi4fB9Ev1CD0aGqM9J-2" target="xGTi4fB9Ev1CD0aGqM9J-29">
          <mxGeometry width="50" height="50" relative="1" as="geometry">
            <mxPoint x="265" y="380" as="sourcePoint" />
            <mxPoint x="390" y="300" as="targetPoint" />
          </mxGeometry>
        </mxCell>
        <mxCell id="xGTi4fB9Ev1CD0aGqM9J-50" value="" style="endArrow=none;html=1;rounded=0;exitX=0.5;exitY=0.5;exitDx=0;exitDy=0;exitPerimeter=0;entryX=0;entryY=0.5;entryDx=0;entryDy=0;" edge="1" parent="1" source="xGTi4fB9Ev1CD0aGqM9J-2" target="xGTi4fB9Ev1CD0aGqM9J-37">
          <mxGeometry width="50" height="50" relative="1" as="geometry">
            <mxPoint x="530" y="630" as="sourcePoint" />
            <mxPoint x="580" y="580" as="targetPoint" />
          </mxGeometry>
        </mxCell>
        <mxCell id="xGTi4fB9Ev1CD0aGqM9J-65" value="" style="endArrow=none;html=1;rounded=0;entryX=1;entryY=0.5;entryDx=0;entryDy=0;exitX=0.5;exitY=0.5;exitDx=0;exitDy=0;exitPerimeter=0;" edge="1" parent="1" source="xGTi4fB9Ev1CD0aGqM9J-3" target="xGTi4fB9Ev1CD0aGqM9J-52">
          <mxGeometry width="50" height="50" relative="1" as="geometry">
            <mxPoint x="550" y="420" as="sourcePoint" />
            <mxPoint x="600" y="370" as="targetPoint" />
          </mxGeometry>
        </mxCell>
        <mxCell id="xGTi4fB9Ev1CD0aGqM9J-66" value="" style="endArrow=none;html=1;rounded=0;entryX=1;entryY=0;entryDx=0;entryDy=0;exitX=0.5;exitY=0.5;exitDx=0;exitDy=0;exitPerimeter=0;" edge="1" parent="1" source="xGTi4fB9Ev1CD0aGqM9J-3" target="xGTi4fB9Ev1CD0aGqM9J-53">
          <mxGeometry width="50" height="50" relative="1" as="geometry">
            <mxPoint x="875" y="430" as="sourcePoint" />
            <mxPoint x="690" y="290" as="targetPoint" />
          </mxGeometry>
        </mxCell>
        <mxCell id="xGTi4fB9Ev1CD0aGqM9J-67" value="" style="endArrow=none;html=1;rounded=0;entryX=1;entryY=0;entryDx=0;entryDy=0;exitX=0.5;exitY=0.5;exitDx=0;exitDy=0;exitPerimeter=0;" edge="1" parent="1" source="xGTi4fB9Ev1CD0aGqM9J-3" target="xGTi4fB9Ev1CD0aGqM9J-54">
          <mxGeometry width="50" height="50" relative="1" as="geometry">
            <mxPoint x="885" y="440" as="sourcePoint" />
            <mxPoint x="700" y="300" as="targetPoint" />
          </mxGeometry>
        </mxCell>
        <mxCell id="xGTi4fB9Ev1CD0aGqM9J-68" value="" style="endArrow=none;html=1;rounded=0;entryX=1;entryY=0;entryDx=0;entryDy=0;exitX=0.5;exitY=0.5;exitDx=0;exitDy=0;exitPerimeter=0;" edge="1" parent="1" source="xGTi4fB9Ev1CD0aGqM9J-3" target="xGTi4fB9Ev1CD0aGqM9J-55">
          <mxGeometry width="50" height="50" relative="1" as="geometry">
            <mxPoint x="895" y="450" as="sourcePoint" />
            <mxPoint x="710" y="310" as="targetPoint" />
          </mxGeometry>
        </mxCell>
        <mxCell id="xGTi4fB9Ev1CD0aGqM9J-69" value="" style="endArrow=none;html=1;rounded=0;entryX=0.5;entryY=0;entryDx=0;entryDy=0;exitX=0.5;exitY=0.5;exitDx=0;exitDy=0;exitPerimeter=0;" edge="1" parent="1" source="xGTi4fB9Ev1CD0aGqM9J-3" target="xGTi4fB9Ev1CD0aGqM9J-56">
          <mxGeometry width="50" height="50" relative="1" as="geometry">
            <mxPoint x="905" y="460" as="sourcePoint" />
            <mxPoint x="720" y="320" as="targetPoint" />
          </mxGeometry>
        </mxCell>
        <mxCell id="xGTi4fB9Ev1CD0aGqM9J-73" value="" style="endArrow=none;html=1;rounded=0;entryX=1;entryY=1;entryDx=0;entryDy=0;exitX=0.5;exitY=0.5;exitDx=0;exitDy=0;exitPerimeter=0;" edge="1" parent="1" source="xGTi4fB9Ev1CD0aGqM9J-4" target="xGTi4fB9Ev1CD0aGqM9J-20">
          <mxGeometry width="50" height="50" relative="1" as="geometry">
            <mxPoint x="550" y="530" as="sourcePoint" />
            <mxPoint x="600" y="480" as="targetPoint" />
          </mxGeometry>
        </mxCell>
        <mxCell id="xGTi4fB9Ev1CD0aGqM9J-74" value="" style="endArrow=none;html=1;rounded=0;entryX=1;entryY=0.5;entryDx=0;entryDy=0;exitX=0.5;exitY=0.5;exitDx=0;exitDy=0;exitPerimeter=0;" edge="1" parent="1" source="xGTi4fB9Ev1CD0aGqM9J-4" target="xGTi4fB9Ev1CD0aGqM9J-25">
          <mxGeometry width="50" height="50" relative="1" as="geometry">
            <mxPoint x="875" y="410" as="sourcePoint" />
            <mxPoint x="454" y="271" as="targetPoint" />
          </mxGeometry>
        </mxCell>
        <mxCell id="xGTi4fB9Ev1CD0aGqM9J-76" value="" style="endArrow=none;html=1;rounded=0;entryX=0.5;entryY=1;entryDx=0;entryDy=0;exitX=0.5;exitY=0.5;exitDx=0;exitDy=0;exitPerimeter=0;" edge="1" parent="1" source="xGTi4fB9Ev1CD0aGqM9J-4" target="xGTi4fB9Ev1CD0aGqM9J-70">
          <mxGeometry width="50" height="50" relative="1" as="geometry">
            <mxPoint x="895" y="430" as="sourcePoint" />
            <mxPoint x="474" y="291" as="targetPoint" />
          </mxGeometry>
        </mxCell>
        <mxCell id="xGTi4fB9Ev1CD0aGqM9J-77" value="" style="endArrow=none;html=1;rounded=0;exitX=0.5;exitY=0.5;exitDx=0;exitDy=0;exitPerimeter=0;entryX=0.5;entryY=1;entryDx=0;entryDy=0;" edge="1" parent="1" source="xGTi4fB9Ev1CD0aGqM9J-4" target="xGTi4fB9Ev1CD0aGqM9J-71">
          <mxGeometry width="50" height="50" relative="1" as="geometry">
            <mxPoint x="905" y="440" as="sourcePoint" />
            <mxPoint x="715" y="290" as="targetPoint" />
          </mxGeometry>
        </mxCell>
        <mxCell id="xGTi4fB9Ev1CD0aGqM9J-80" value="" style="endArrow=none;html=1;rounded=0;entryX=1;entryY=0.5;entryDx=0;entryDy=0;exitX=0.5;exitY=0.5;exitDx=0;exitDy=0;exitPerimeter=0;" edge="1" parent="1" source="xGTi4fB9Ev1CD0aGqM9J-4" target="xGTi4fB9Ev1CD0aGqM9J-19">
          <mxGeometry width="50" height="50" relative="1" as="geometry">
            <mxPoint x="875" y="410" as="sourcePoint" />
            <mxPoint x="470" y="320" as="targetPoint" />
          </mxGeometry>
        </mxCell>
        <mxCell id="xGTi4fB9Ev1CD0aGqM9J-81" value="" style="endArrow=none;html=1;rounded=0;entryX=1;entryY=0.5;entryDx=0;entryDy=0;exitX=0.5;exitY=0.5;exitDx=0;exitDy=0;exitPerimeter=0;" edge="1" parent="1" source="xGTi4fB9Ev1CD0aGqM9J-4" target="xGTi4fB9Ev1CD0aGqM9J-29">
          <mxGeometry width="50" height="50" relative="1" as="geometry">
            <mxPoint x="885" y="420" as="sourcePoint" />
            <mxPoint x="480" y="330" as="targetPoint" />
          </mxGeometry>
        </mxCell>
        <mxCell id="xGTi4fB9Ev1CD0aGqM9J-82" value="" style="endArrow=none;html=1;rounded=0;entryX=1;entryY=0.5;entryDx=0;entryDy=0;exitX=0.5;exitY=0.5;exitDx=0;exitDy=0;exitPerimeter=0;" edge="1" parent="1" source="xGTi4fB9Ev1CD0aGqM9J-4" target="xGTi4fB9Ev1CD0aGqM9J-37">
          <mxGeometry width="50" height="50" relative="1" as="geometry">
            <mxPoint x="895" y="430" as="sourcePoint" />
            <mxPoint x="490" y="340" as="targetPoint" />
          </mxGeometry>
        </mxCell>
        <mxCell id="xGTi4fB9Ev1CD0aGqM9J-84" value="" style="endArrow=none;html=1;rounded=0;entryX=1;entryY=0.5;entryDx=0;entryDy=0;exitX=0.5;exitY=0.5;exitDx=0;exitDy=0;exitPerimeter=0;" edge="1" parent="1" source="xGTi4fB9Ev1CD0aGqM9J-4" target="xGTi4fB9Ev1CD0aGqM9J-51">
          <mxGeometry width="50" height="50" relative="1" as="geometry">
            <mxPoint x="905" y="440" as="sourcePoint" />
            <mxPoint x="500" y="350" as="targetPoint" />
          </mxGeometry>
        </mxCell>
        <mxCell id="xGTi4fB9Ev1CD0aGqM9J-85" value="" style="endArrow=none;html=1;rounded=0;exitX=0.5;exitY=0.5;exitDx=0;exitDy=0;exitPerimeter=0;entryX=0;entryY=0.5;entryDx=0;entryDy=0;" edge="1" parent="1" source="xGTi4fB9Ev1CD0aGqM9J-2" target="xGTi4fB9Ev1CD0aGqM9J-51">
          <mxGeometry width="50" height="50" relative="1" as="geometry">
            <mxPoint x="235" y="350" as="sourcePoint" />
            <mxPoint x="360" y="600" as="targetPoint" />
          </mxGeometry>
        </mxCell>
        <mxCell id="xGTi4fB9Ev1CD0aGqM9J-86" value="" style="endArrow=none;html=1;rounded=0;exitX=1;exitY=0.5;exitDx=0;exitDy=0;entryX=0.5;entryY=0.5;entryDx=0;entryDy=0;entryPerimeter=0;" edge="1" parent="1" source="xGTi4fB9Ev1CD0aGqM9J-51" target="xGTi4fB9Ev1CD0aGqM9J-3">
          <mxGeometry width="50" height="50" relative="1" as="geometry">
            <mxPoint x="550" y="650" as="sourcePoint" />
            <mxPoint x="600" y="600" as="targetPoint" />
          </mxGeometry>
        </mxCell>
        <mxCell id="xGTi4fB9Ev1CD0aGqM9J-87" value="" style="endArrow=none;html=1;rounded=0;exitX=1;exitY=0.5;exitDx=0;exitDy=0;entryX=0.5;entryY=0.5;entryDx=0;entryDy=0;entryPerimeter=0;" edge="1" parent="1" source="xGTi4fB9Ev1CD0aGqM9J-37" target="xGTi4fB9Ev1CD0aGqM9J-3">
          <mxGeometry width="50" height="50" relative="1" as="geometry">
            <mxPoint x="470" y="670" as="sourcePoint" />
            <mxPoint x="875" y="580" as="targetPoint" />
          </mxGeometry>
        </mxCell>
        <mxCell id="xGTi4fB9Ev1CD0aGqM9J-88" value="" style="endArrow=none;html=1;rounded=0;exitX=1;exitY=0.5;exitDx=0;exitDy=0;entryX=0.5;entryY=0.5;entryDx=0;entryDy=0;entryPerimeter=0;" edge="1" parent="1" source="xGTi4fB9Ev1CD0aGqM9J-29" target="xGTi4fB9Ev1CD0aGqM9J-3">
          <mxGeometry width="50" height="50" relative="1" as="geometry">
            <mxPoint x="480" y="680" as="sourcePoint" />
            <mxPoint x="885" y="590" as="targetPoint" />
          </mxGeometry>
        </mxCell>
        <mxCell id="xGTi4fB9Ev1CD0aGqM9J-89" value="" style="endArrow=none;html=1;rounded=0;exitX=1;exitY=0.5;exitDx=0;exitDy=0;entryX=0.5;entryY=0.5;entryDx=0;entryDy=0;entryPerimeter=0;" edge="1" parent="1" source="xGTi4fB9Ev1CD0aGqM9J-19" target="xGTi4fB9Ev1CD0aGqM9J-3">
          <mxGeometry width="50" height="50" relative="1" as="geometry">
            <mxPoint x="490" y="690" as="sourcePoint" />
            <mxPoint x="895" y="600" as="targetPoint" />
          </mxGeometry>
        </mxCell>
        <mxCell id="xGTi4fB9Ev1CD0aGqM9J-90" value="" style="endArrow=none;html=1;rounded=0;exitX=1;exitY=0.5;exitDx=0;exitDy=0;entryX=0.5;entryY=0.5;entryDx=0;entryDy=0;entryPerimeter=0;" edge="1" parent="1" source="xGTi4fB9Ev1CD0aGqM9J-25" target="xGTi4fB9Ev1CD0aGqM9J-3">
          <mxGeometry width="50" height="50" relative="1" as="geometry">
            <mxPoint x="500" y="700" as="sourcePoint" />
            <mxPoint x="905" y="610" as="targetPoint" />
          </mxGeometry>
        </mxCell>
        <mxCell id="xGTi4fB9Ev1CD0aGqM9J-91" value="" style="endArrow=none;html=1;rounded=0;exitX=1;exitY=0.5;exitDx=0;exitDy=0;entryX=0.5;entryY=0.5;entryDx=0;entryDy=0;entryPerimeter=0;" edge="1" parent="1" source="xGTi4fB9Ev1CD0aGqM9J-20" target="xGTi4fB9Ev1CD0aGqM9J-3">
          <mxGeometry width="50" height="50" relative="1" as="geometry">
            <mxPoint x="510" y="710" as="sourcePoint" />
            <mxPoint x="915" y="620" as="targetPoint" />
          </mxGeometry>
        </mxCell>
        <mxCell id="xGTi4fB9Ev1CD0aGqM9J-92" value="" style="endArrow=none;html=1;rounded=0;entryX=1;entryY=0.5;entryDx=0;entryDy=0;exitX=0.5;exitY=0.5;exitDx=0;exitDy=0;exitPerimeter=0;" edge="1" parent="1" source="xGTi4fB9Ev1CD0aGqM9J-4" target="xGTi4fB9Ev1CD0aGqM9J-52">
          <mxGeometry width="50" height="50" relative="1" as="geometry">
            <mxPoint x="875" y="580" as="sourcePoint" />
            <mxPoint x="580" y="430" as="targetPoint" />
          </mxGeometry>
        </mxCell>
        <mxCell id="xGTi4fB9Ev1CD0aGqM9J-93" value="" style="endArrow=none;html=1;rounded=0;entryX=1;entryY=0;entryDx=0;entryDy=0;exitX=0.5;exitY=0.5;exitDx=0;exitDy=0;exitPerimeter=0;" edge="1" parent="1" source="xGTi4fB9Ev1CD0aGqM9J-4" target="xGTi4fB9Ev1CD0aGqM9J-53">
          <mxGeometry width="50" height="50" relative="1" as="geometry">
            <mxPoint x="875" y="580" as="sourcePoint" />
            <mxPoint x="434" y="769" as="targetPoint" />
          </mxGeometry>
        </mxCell>
        <mxCell id="xGTi4fB9Ev1CD0aGqM9J-94" value="" style="endArrow=none;html=1;rounded=0;entryX=1;entryY=0;entryDx=0;entryDy=0;exitX=0.5;exitY=0.5;exitDx=0;exitDy=0;exitPerimeter=0;" edge="1" parent="1" source="xGTi4fB9Ev1CD0aGqM9J-4" target="xGTi4fB9Ev1CD0aGqM9J-54">
          <mxGeometry width="50" height="50" relative="1" as="geometry">
            <mxPoint x="875" y="410" as="sourcePoint" />
            <mxPoint x="434" y="769" as="targetPoint" />
          </mxGeometry>
        </mxCell>
        <mxCell id="xGTi4fB9Ev1CD0aGqM9J-95" value="" style="endArrow=none;html=1;rounded=0;entryX=1;entryY=0;entryDx=0;entryDy=0;exitX=0.5;exitY=0.5;exitDx=0;exitDy=0;exitPerimeter=0;" edge="1" parent="1" source="xGTi4fB9Ev1CD0aGqM9J-4" target="xGTi4fB9Ev1CD0aGqM9J-55">
          <mxGeometry width="50" height="50" relative="1" as="geometry">
            <mxPoint x="885" y="420" as="sourcePoint" />
            <mxPoint x="444" y="779" as="targetPoint" />
          </mxGeometry>
        </mxCell>
        <mxCell id="xGTi4fB9Ev1CD0aGqM9J-96" value="" style="endArrow=none;html=1;rounded=0;entryX=0.5;entryY=0;entryDx=0;entryDy=0;exitX=0.5;exitY=0.5;exitDx=0;exitDy=0;exitPerimeter=0;" edge="1" parent="1" source="xGTi4fB9Ev1CD0aGqM9J-4" target="xGTi4fB9Ev1CD0aGqM9J-56">
          <mxGeometry width="50" height="50" relative="1" as="geometry">
            <mxPoint x="895" y="430" as="sourcePoint" />
            <mxPoint x="454" y="789" as="targetPoint" />
          </mxGeometry>
        </mxCell>
      </root>
    </mxGraphModel>
  </diagram>
</mxfile>
